<svg xmlns="http://www.w3.org/2000/svg" xmlns:xlink="http://www.w3.org/1999/xlink" xml:space="preserve" width="239.822mm" height="102.443mm" version="1.1" style="shape-rendering:geometricPrecision; text-rendering:geometricPrecision; image-rendering:optimizeQuality; fill-rule:evenodd; clip-rule:evenodd" viewBox="0 0 23982.24 10244.33">
 <defs>
  <style type="text/css">
   <![CDATA[
    .fil0 {fill:url(#id0)}
    .fil2 {fill:url(#id1)}
    .fil3 {fill:url(#id2)}
    .fil4 {fill:url(#id3)}
    .fil1 {fill:url(#id4)}
   ]]>
  </style>
  <linearGradient id="id0" gradientUnits="userSpaceOnUse" x1="11991.12" y1="10689.51" x2="11991.12" y2="7540.18">
   <stop offset="0" style="stop-opacity:1; stop-color:#1FC3F3"/>
   <stop offset="0.419608" style="stop-opacity:1; stop-color:#0A123C"/>
   <stop offset="0.619608" style="stop-opacity:1; stop-color:#203B80"/>
   <stop offset="0.878431" style="stop-opacity:1; stop-color:#1FC3F3"/>
   <stop offset="1" style="stop-opacity:1; stop-color:white"/>
  </linearGradient>
  <radialGradient id="id1" gradientUnits="userSpaceOnUse" gradientTransform="matrix(0.054369 0.777513 -0.777514 0.0543691 14217 -3783)" cx="10932.76" cy="4988.2" r="1856.08" fx="10932.76" fy="4988.2">
   <stop offset="0" style="stop-opacity:1; stop-color:white"/>
   <stop offset="0.160784" style="stop-opacity:1; stop-color:#1FC3F3"/>
   <stop offset="0.541176" style="stop-opacity:1; stop-color:#203B80"/>
   <stop offset="1" style="stop-opacity:1; stop-color:#1FC3F3"/>
  </radialGradient>
  <radialGradient id="id2" gradientUnits="userSpaceOnUse" gradientTransform="matrix(-0.145734 1.18691 -1.18691 -0.145734 13618 -7582)" cx="9039.91" cy="2746.92" r="2964.66" fx="9039.91" fy="2746.92">
   <stop offset="0" style="stop-opacity:1; stop-color:white"/>
   <stop offset="0.168627" style="stop-opacity:1; stop-color:#5D5E5E"/>
   <stop offset="0.360784" style="stop-opacity:1; stop-color:#000001"/>
   <stop offset="0.6" style="stop-opacity:1; stop-color:#000002"/>
   <stop offset="1" style="stop-opacity:1; stop-color:#000001"/>
  </radialGradient>
  <radialGradient id="id3" gradientUnits="userSpaceOnUse" gradientTransform="matrix(0.0790492 1.13046 -1.13045 0.079049 12075 -6227)" xlink:href="#id2" cx="8541.25" cy="3722.98" r="2754.71" fx="8541.25" fy="3722.98">
  </radialGradient>
  <radialGradient id="id4" gradientUnits="userSpaceOnUse" gradientTransform="matrix(-0.192697 0.991341 -0.99134 -0.192697 16823 -6845)" xlink:href="#id1" cx="11163.26" cy="3539.75" r="3539.75" fx="11163.26" fy="3539.75">
  </radialGradient>
 </defs>
 <g id="__x0023_Layer_x0020_1">
  <metadata id="CorelCorpID_0Corel-Layer"/>
  <path class="fil0" d="M2238.48 7705.08c456.83,0 764.57,76.14 923.2,228.43 158.6,152.25 237.93,456.82 237.93,913.66l0 144.66 0 79.94 0 68.53 0 118.02c0,33 0,64.73 0,95.16 -5.07,17.78 -7.62,30.47 -7.62,38.09 0,58.36 -12.68,158.62 -38.06,300.74 -25.38,142.13 -113.58,269.67 -264.58,382.6 -151.04,112.95 -339.46,169.42 -565.33,169.42l-2524.02 0 0 -2539.25 2238.48 0zm380.69 1286.75l0 0 0 -22.83c0,-251.91 -27.9,-421.32 -83.75,-508.88 -55.84,-86.91 -205.57,-130.7 -449.22,-130.7l-1313.39 0 0 1294.38 1301.96 0c236.04,0 385.78,-44.42 449.25,-133.25 63.44,-89.47 95.15,-255.69 95.15,-498.72zm4061.14 -1286.75l0 0 0 578.67 -2059.56 0 0 433.99 1922.49 0 0 502.52 -1922.49 0 0 449.21 2059.56 0 0 574.86 -2832.38 0 0 -2539.25 2832.38 0zm2663.98 2539.25l0 0 -1530.41 -1907.29 0 1907.29 -727.12 0 0 -2539.25 1229.64 0 1530.39 1903.48 0 -1903.48 727.12 0 0 2539.25 -1229.62 0zm1731.26 0l0 0 0 -2539.25 772.82 0 0 2539.25 -772.82 0zm4845.34 0l0 0 0 -1933.96 -1119.23 1933.96 -620.54 0 -1107.82 -1933.96 0 1933.96 -727.15 0 0 -2539.25 1229.66 0 932.7 1682.68 921.3 -1682.68 1222.02 0 0 2539.25 -730.94 0zm4064.96 -2539.25l0 0 0 578.67 -2059.57 0 0 433.99 1922.5 0 0 502.52 -1922.5 0 0 449.21 2059.57 0 0 574.86 -2832.39 0 0 -2539.25 2832.39 0zm3996.39 2539.25l0 0 -1058.33 0 -852.76 -909.86 -856.55 909.86 -1050.74 0 1267.74 -1267.73 -1195.4 -1271.52 1031.68 0 810.88 909.86 814.68 -909.86 997.43 0 -1187.77 1271.52 1279.14 1267.73z"/>
  <path class="fil1" d="M11789.09 5926.93l99.97 781.75 -477.02 -440.14 377.05 -341.61zm6.18 -4644.18l0 0c1398.57,2538.39 601.62,3201.5 362.97,2415.91 -238.57,-785.64 77.17,-581.43 -1189.07,-3698.66 220.76,2158.46 -826.17,2587.15 -1546.23,4539.81 -339.6,920.98 112.58,1954.59 1037.32,2361.52l149.68 -1116.87 -184.76 0 0 -205.24 215.33 -0.06 246.53 -1796 -61.6 0 0 -195 92.39 0 -1.4 -31.02 104.03 -769.55 205.31 0 0 -133.42 133.41 0 0 133.42 194.67 0.05 102.96 800.52 92.33 0 0 195 -59.15 1.05 151.54 1117.6 30.79 195.02 61.58 482.39 215.54 0 0 205.24 -186.48 0.24 152.64 1142.04c2374.57,-941.99 1378.47,-3980.03 -320.33,-5643.99zm133.13 5713.1l0 0c-7.75,-30.4 -20.55,-56.39 -43.87,-74.09 -50.6,-38.5 -128.68,-108.89 -173.87,-154.56 -74.74,-75.53 -271.95,-262.38 -351.48,-315.63l0 627.92c47.98,-0.41 96.61,-2.25 145.87,-5.55 145.52,-9.85 287.26,-36.19 423.35,-78.09zm-702.63 81.09l0 0c-204.29,-9.49 -395.76,-45.09 -572.81,-102.39 9.14,-20.43 23.09,-38.8 45.27,-54.94 40.67,-29.64 137.7,-123.92 175.95,-162.7 69.23,-70.04 279.58,-267.36 351.59,-315.59l0 635.62zm-71.9 -2134.02l0 0c6.49,9.65 51.35,65.86 51.35,71.82 0,26.11 -34.91,47.29 -51.35,71.83l-292.77 302.26 89.26 -661.25 203.51 215.34zm225.81 92.3l0 0 -11.12 -21.05 11.12 -19.97 245.35 -267.71 88.8 658.3 -334.15 -349.57zm-590.71 893.54l0 0 374.04 339.39 -479.49 450.5 105.45 -789.89zm570.21 -144.3l0 0 0 307.89 338.68 -307.89 -338.68 0zm-485.99 4l0 0 352.58 -4 -2.03 320.39 -350.55 -316.39zm485.99 -609.5l0 0 363.34 396.5 -363.34 3.76 0 -400.26zm-145.34 -1.51l0 0 1.63 401.77 -362.3 -2.79 360.67 -398.98zm7.22 -312.16l0 0 -196.62 -203.69 191.03 -6.09 0 174.46c0,19.81 3.23,18.3 5.59,35.32zm138.12 -209.78l0 0 195.02 0 -201.04 209.43c9.15,-31.21 6.02,4.29 6.02,-34.97l0 -174.46zm-10.29 -379.75l0 0 216.42 245.59 -216.42 0.75 0 -246.34zm-125.9 -2.37l0 0 2.78 248.71 -216.14 -0.51 213.36 -248.2zm294.27 -341.59l0 0 59.92 436.05 -221.3 -248.84 161.38 -187.21zm-463.06 5.68l0 0 164.56 181.53 -221.75 248.72 57.19 -430.25zm166.07 24.9l0 0 -152.59 -175.69 158.09 -3.53 -5.5 179.22zm128.62 -179.22l0 0 153.97 0 -153.97 174.46 0 -174.46zm10.29 -595.25l0 0 61.59 0 53.72 399.91 -115.31 0.34 0 -400.25zm-205.31 -0.06l0 0 71.9 0.06 0 400.25 -123.42 -0.06 51.52 -400.25z"/>
  <path class="fil2" d="M10969.17 0c0,0 432.39,1250.51 361.25,2654.17l28.76 0 0 133.42 194.67 0.05 102.96 800.52 92.33 0 0 195 -59.15 1.05 151.54 1117.6 30.79 195.02 61.58 482.39 181.4 0c760.93,-480.67 1242.86,-1774.87 -225.44,-4175.42 -31.33,-40.66 -62.87,-81 -94.59,-121.05 1398.57,2538.39 601.62,3201.5 362.97,2415.91 -238.57,-785.64 77.17,-581.43 -1189.07,-3698.66zm256.6 3477.38l0 0 0 110.78 -24.9 0c8.75,-36.85 17.09,-73.84 24.9,-110.78zm-76.52 307.52l0 0 76.52 -1.74 -5.5 179.22 -92.16 -106.1c7.31,-23.75 14.25,-47.52 21.14,-71.38zm-60.03 191.2l0 0 129.54 142.91 -221.75 248.72 29.29 -220.24c22.34,-56.78 43.3,-113.93 62.92,-171.39zm-325.42 705l0 0 -0.06 0.06c-194.2,321.84 -205.88,583.07 -105.98,772.16l106.04 -772.22zm416.7 1103.9l0 0c14.89,2.48 30.04,4.46 45.21,6.3l0.06 -6.84 -45.27 0.54zm178.68 15.17l0 0c69.47,0.62 140.95,-4.35 213.24,-15.71l-213.24 0 0 15.71zm-205.31 -857.25l0 0c6.49,9.65 51.35,65.86 51.35,71.82 0,26.11 -34.91,47.29 -51.35,71.83l-292.77 302.26 89.26 -661.25 203.51 215.34zm225.81 92.3l0 0 -11.12 -21.05 11.12 -19.97 245.35 -267.71 88.8 658.3 -334.15 -349.57zm-20.5 143.74l0 0 363.34 396.5 -363.34 3.76 0 -400.26zm-145.34 -1.51l0 0 1.63 401.77 -362.3 -2.79 360.67 -398.98zm7.22 -312.16l0 0 -196.62 -203.69 191.03 -6.09 0 174.46c0,19.81 3.23,18.3 5.59,35.32zm138.12 -209.78l0 0 195.02 0 -201.04 209.43c9.15,-31.21 6.02,4.29 6.02,-34.97l0 -174.46zm-10.29 -379.75l0 0 216.42 245.59 -216.42 0.75 0 -246.34zm-125.9 -2.37l0 0 2.78 248.71 -216.14 -0.51 213.36 -248.2zm294.27 -341.59l0 0 59.92 436.05 -221.3 -248.84 161.38 -187.21zm-168.37 -148.64l0 0 153.97 0 -153.97 174.46 0 -174.46zm10.29 -595.25l0 0 61.59 0 53.72 399.91 -115.31 0.34 0 -400.25z"/>
  <path class="fil3" d="M10681.19 1264.6c-455.4,411.13 -287.35,586.38 -305.4,869.09 12.5,-25.22 24.81,-50.54 36.92,-75.94 128.45,-270.16 215.34,-530.56 268.48,-793.15zm-151.34 5929.31l0 0c-2723.22,-244.18 -3182.1,-2756.43 -1730.61,-4633.42 -155.37,323.74 -275.17,603.54 -231.05,716.95 49.62,-76.94 106.57,-151.19 171.99,-221.61 619.68,-667.78 1192.61,-987.14 1372.76,-1371.33 -59.73,1238.72 -1606.66,1742.08 -1465.29,3397.83 118.13,-976.49 630.66,-1357.32 1118.4,-1869.29 -1264.23,1553.3 -974.95,3365.04 763.8,3980.87zm-871.01 -5714.74l0 0c0,0 -429.82,247.94 -486.34,515.32 -56.45,267.49 -190.22,449.36 -190.22,449.36 0,0 192.44,-46.3 360.01,-262.24 167.58,-215.9 -26.23,-283.1 316.55,-702.44z"/>
  <path class="fil4" d="M10111.93 1686.67c-20.7,44.21 -367.65,770.3 -1365.48,1937.11 -1029.99,1204.49 -237.39,3078.17 1783.4,3570.13 -1738.75,-615.83 -2028.03,-2427.57 -763.8,-3980.87 -487.74,511.97 -1000.27,892.8 -1118.4,1869.29 -141.37,-1655.75 1405.56,-2159.11 1465.29,-3397.83l-0.25 0.57 -0.76 1.6z"/>
 </g>
</svg>
